<?xml version="1.0" standalone="no"?>
<!DOCTYPE svg PUBLIC "-//W3C//DTD SVG 20010904//EN"
 "http://www.w3.org/TR/2001/REC-SVG-20010904/DTD/svg10.dtd">
<svg version="1.0" xmlns="http://www.w3.org/2000/svg"
 width="520.000000pt" height="520.000000pt" viewBox="0 0 520.000000 520.000000"
 preserveAspectRatio="xMidYMid meet">
<metadata>
Created by potrace 1.14, written by Peter Selinger 2001-2017
</metadata>
<g transform="translate(0.000000,520.000000) scale(0.100000,-0.100000)"
fill="#000000" stroke="none">
<path d="M3241 4441 c-6 -11 -11 -38 -11 -60 0 -23 -4 -41 -8 -41 -5 0 -35 9
-67 20 -179 62 -457 94 -683 79 -794 -52 -1475 -626 -1666 -1404 -66 -270 -64
-611 5 -887 22 -90 69 -224 102 -296 19 -42 26 -49 37 -39 8 7 7 1 -3 -13 -53
-82 -89 -170 -127 -316 -24 -87 -46 -168 -50 -179 -5 -11 -18 -47 -31 -80 -25
-65 -40 -94 -78 -146 -24 -34 -24 -34 -2 -14 36 31 75 94 100 160 13 33 27 69
32 80 5 11 16 47 25 80 24 90 48 178 62 220 35 112 139 255 185 255 12 0 17 5
14 13 -3 8 -1 20 5 28 8 11 8 10 4 -5 -15 -44 76 -9 414 159 41 21 93 46 115
57 22 10 47 23 55 29 8 5 23 12 33 16 13 4 15 9 6 19 -9 11 -8 14 5 14 9 0 16
-4 16 -10 0 -17 20 -11 45 14 14 14 27 20 30 15 8 -12 45 -12 45 1 0 18 46 11
65 -10 10 -11 32 -21 49 -21 30 -2 30 -2 4 -6 -20 -3 -28 -10 -28 -24 0 -10 5
-19 10 -19 6 0 10 4 10 9 0 4 18 11 41 14 23 3 52 15 65 28 25 24 32 49 13 49
-8 0 -8 4 -1 13 5 6 12 21 15 32 3 13 5 8 6 -13 1 -42 21 -32 21 11 0 42 -22
137 -32 137 -5 0 -8 6 -8 13 0 23 -43 99 -113 203 -47 69 -123 157 -252 288
-158 161 -185 194 -182 215 2 14 2 20 0 14 -6 -18 -43 -16 -43 2 0 17 -16 20
-25 5 -11 -18 -23 -10 -34 23 -9 25 -14 29 -21 17 -5 -8 -15 -15 -22 -15 -7
-1 -12 -6 -10 -13 1 -7 -3 -12 -8 -12 -7 0 -9 25 -5 66 4 61 3 65 -12 53 -15
-13 -15 -12 -5 8 7 12 16 23 22 25 6 2 6 52 -1 148 -6 80 -8 169 -5 197 14
126 77 220 177 269 48 22 50 25 21 21 -21 -2 -29 0 -23 6 6 6 38 11 71 11 52
1 59 0 44 -11 -16 -12 -15 -13 9 -13 15 0 27 6 27 13 1 6 9 2 20 -11 11 -13
24 -21 29 -18 5 4 25 -1 44 -10 31 -15 46 -15 119 -5 45 6 164 13 263 15 99 2
207 8 240 14 33 6 94 16 135 22 115 17 201 31 245 40 22 5 65 14 95 21 30 6
64 15 75 19 19 8 19 9 1 9 -19 1 -19 2 -2 14 20 14 62 11 83 -5 7 -6 19 -8 28
-4 9 3 19 -3 26 -16 19 -35 -19 -55 -95 -49 -16 2 -26 -2 -22 -7 8 -14 -15
-21 -48 -15 -16 3 -63 -1 -105 -10 -120 -25 -291 -56 -346 -63 -126 -15 -273
-53 -337 -85 -10 -5 -23 -9 -29 -9 -6 0 -48 -18 -93 -40 -88 -42 -138 -83
-130 -105 3 -7 29 -19 57 -26 57 -13 96 -37 97 -58 0 -8 6 -11 16 -7 9 3 25
-1 37 -9 14 -10 16 -15 7 -15 -11 0 -11 -3 -2 -12 10 -10 15 -10 21 1 6 9 11
10 15 2 4 -6 4 -11 0 -11 -4 0 1 -9 11 -20 10 -11 25 -20 34 -20 13 1 13 3 -3
15 -11 8 -17 17 -14 20 3 3 11 -1 18 -10 7 -8 18 -15 25 -15 7 0 19 -8 26 -17
11 -15 11 -16 -1 -5 -15 13 -40 16 -40 5 0 -5 19 -19 41 -33 22 -14 48 -32 58
-40 9 -8 24 -19 33 -25 8 -5 49 -34 89 -62 41 -29 95 -68 120 -85 107 -76 348
-268 379 -302 14 -15 35 -31 48 -37 21 -8 22 -10 8 -25 -9 -8 -16 -20 -16 -25
0 -5 -12 -9 -27 -10 l-28 -1 25 -7 c21 -6 15 -9 -34 -19 -33 -7 -62 -10 -64
-7 -3 3 9 8 27 11 26 5 55 24 37 24 -56 0 -294 -74 -381 -118 -67 -34 -131
-33 -207 3 -32 15 -58 31 -58 36 0 5 -10 9 -22 9 -25 0 -76 37 -135 98 -65 67
-51 34 16 -39 44 -49 79 -74 142 -106 46 -23 100 -45 119 -48 66 -12 72 -15
59 -31 -21 -26 -87 -17 -156 21 -35 19 -63 31 -63 27 0 -20 106 -92 134 -92 8
0 26 -30 42 -70 25 -64 43 -88 44 -57 1 6 7 1 14 -13 8 -13 27 -29 44 -35 29
-10 29 -10 16 -50 l-13 -40 5 38 c4 30 1 38 -13 43 -10 3 -26 10 -35 15 -24
12 -23 -2 3 -46 19 -31 20 -42 11 -71 -9 -29 -7 -41 13 -79 13 -24 51 -70 84
-102 62 -59 70 -78 49 -113 -7 -10 -9 -23 -5 -27 5 -4 12 -1 17 7 8 13 11 12
23 -4 9 -13 16 -15 21 -8 13 21 -41 116 -101 177 -32 34 -64 73 -72 87 -14 28
-8 78 9 78 6 0 5 -9 -2 -20 -11 -18 -9 -28 13 -68 20 -37 32 -48 55 -50 16 -2
35 -8 42 -14 8 -7 12 -7 12 0 0 6 7 9 16 5 10 -4 12 -8 5 -13 -7 -4 2 -17 23
-33 18 -15 39 -42 46 -60 7 -17 17 -42 22 -54 10 -20 8 -70 -8 -212 -4 -34 -3
-51 4 -47 5 3 12 -8 16 -25 9 -49 7 -147 -4 -154 -5 -3 -10 -26 -10 -51 0 -24
-4 -44 -10 -44 -5 0 -10 -11 -10 -25 0 -14 -5 -25 -11 -25 -8 0 -10 -12 -6
-36 4 -26 3 -34 -7 -31 -6 3 -23 -10 -35 -29 -13 -19 -28 -34 -34 -34 -5 0 -4
8 4 18 20 23 55 97 70 147 6 22 15 50 20 63 13 33 12 122 -1 102 -5 -8 -10
-34 -10 -57 0 -23 -4 -45 -10 -48 -5 -3 -10 -15 -10 -27 0 -11 -14 -48 -32
-82 -17 -33 -38 -74 -46 -89 -21 -42 -137 -157 -216 -214 -81 -60 -190 -125
-298 -179 -43 -22 -78 -43 -78 -48 0 -10 -34 -41 -84 -76 -33 -24 -45 -40 -28
-40 4 0 37 20 74 44 l66 44 54 -19 c289 -97 740 -95 1056 6 95 30 92 30 92 1
0 -44 24 -56 113 -56 130 0 127 -2 127 94 0 93 4 102 72 140 l46 27 87 -121
c48 -66 96 -125 106 -130 19 -11 190 -13 227 -4 39 11 25 45 -71 174 -51 69
-107 146 -125 171 l-33 45 106 105 c59 57 125 128 147 157 22 28 43 52 47 52
4 0 17 -90 28 -201 12 -110 27 -207 34 -215 16 -20 113 -19 133 2 9 8 16 21
16 27 0 7 12 127 26 269 15 141 24 263 21 272 -5 12 -21 16 -72 16 -36 0 -65
3 -65 7 0 5 24 57 54 118 306 622 239 1354 -175 1915 -70 95 -237 270 -316
332 -29 22 -53 45 -53 50 0 5 70 82 155 171 113 116 155 167 153 182 -3 19
-11 20 -128 23 l-125 3 -125 -131 c-118 -124 -126 -130 -145 -116 -17 12 -21
29 -25 128 l-5 113 -107 3 c-98 2 -108 1 -117 -17z m209 -183 l0 -173 97 105
c54 58 127 136 163 173 l65 68 109 -3 108 -3 -161 -167 c-89 -92 -161 -171
-161 -175 0 -5 76 -112 170 -238 l170 -230 -102 -3 c-56 -1 -107 -1 -113 2 -9
3 -207 268 -247 330 -5 7 -24 -6 -53 -34 l-45 -44 0 -128 0 -128 -95 0 -95 0
0 410 0 410 95 0 95 0 0 -172z m-540 -128 c0 -5 -9 -10 -19 -10 -11 0 -23 5
-26 10 -4 6 5 10 19 10 14 0 26 -4 26 -10z m-247 -67 c-7 -2 -21 -2 -30 0 -10
3 -4 5 12 5 17 0 24 -2 18 -5z m483 -18 c9 -8 14 -21 12 -29 -2 -10 -12 -6
-38 15 -32 27 -32 29 -11 29 12 0 29 -7 37 -15z m-303 -22 c-7 -2 -19 -2 -25
0 -7 3 -2 5 12 5 14 0 19 -2 13 -5z m-130 -20 c-7 -2 -21 -2 -30 0 -10 3 -4 5
12 5 17 0 24 -2 18 -5z m-186 -29 c-3 -3 -12 -4 -19 -1 -8 3 -5 6 6 6 11 1 17
-2 13 -5z m653 -34 c0 -5 -5 -10 -11 -10 -5 0 -7 5 -4 10 3 6 8 10 11 10 2 0
4 -4 4 -10z m-945 -10 c-3 -5 -32 -9 -63 -8 l-57 1 50 7 c28 4 56 8 63 8 7 1
10 -2 7 -8z m640 0 c-3 -5 -11 -10 -16 -10 -6 0 -7 5 -4 10 3 6 11 10 16 10 6
0 7 -4 4 -10z m-255 -54 c0 -2 -7 -6 -15 -10 -8 -3 -15 -1 -15 4 0 6 7 10 15
10 8 0 15 -2 15 -4z m-95 -26 c-3 -5 -13 -10 -21 -10 -8 0 -14 5 -14 10 0 6 9
10 21 10 11 0 17 -4 14 -10z m702 -22 c-3 -8 -6 -5 -6 6 -1 11 2 17 5 13 3 -3
4 -12 1 -19z m-932 -18 c-3 -5 -16 -10 -28 -9 -21 0 -21 1 -2 9 28 12 37 12
30 0z m-924 -31 c-5 -13 -10 -19 -10 -12 -1 15 10 45 15 40 3 -2 0 -15 -5 -28z
m-19 -56 c-3 -16 -7 -22 -10 -15 -4 13 4 42 11 42 2 0 2 -12 -1 -27z m-50 -5
c-6 -6 -15 -8 -19 -4 -4 4 -1 11 7 16 19 12 27 3 12 -12z m658 -22 c0 -2 -12
-11 -27 -20 l-28 -17 24 20 c23 21 31 25 31 17z m-670 -21 c0 -8 -4 -15 -9
-15 -13 0 -22 16 -14 24 11 11 23 6 23 -9z m867 -92 c-3 -3 -11 -2 -17 2 -9 6
-9 10 1 16 14 8 27 -7 16 -18z m-817 -79 c0 -8 -5 -12 -10 -9 -6 4 -8 11 -5
16 9 14 15 11 15 -7z m-50 -4 c0 -5 -4 -10 -10 -10 -5 0 -10 5 -10 10 0 6 5
10 10 10 6 0 10 -4 10 -10z m57 -72 c-3 -7 -5 -2 -5 12 0 14 2 19 5 13 2 -7 2
-19 0 -25z m-67 -83 c0 -8 -4 -15 -10 -15 -5 0 -10 7 -10 15 0 8 5 15 10 15 6
0 10 -7 10 -15z m1244 0 c-4 -8 -8 -15 -10 -15 -2 0 -4 7 -4 15 0 8 4 15 10
15 5 0 7 -7 4 -15z m-1184 -32 c-11 -17 -11 -17 -6 0 3 10 6 24 7 30 0 9 2 9
5 0 3 -7 0 -20 -6 -30z m-55 -63 c3 -5 1 -10 -4 -10 -6 0 -11 5 -11 10 0 6 2
10 4 10 3 0 8 -4 11 -10z m135 -132 c0 -15 3 -17 19 -8 26 13 32 13 58 -8 23
-17 22 -17 -31 -17 -30 0 -56 2 -59 5 -2 3 -7 20 -11 39 -5 29 -4 32 9 21 8
-7 15 -21 15 -32z m1295 2 c10 -11 16 -20 13 -20 -3 0 -13 9 -23 20 -10 11
-16 20 -13 20 3 0 13 -9 23 -20z m-1425 -4 c0 -3 -4 -8 -10 -11 -5 -3 -10 -1
-10 4 0 6 5 11 10 11 6 0 10 -2 10 -4z m1520 -56 c0 -5 -5 -10 -11 -10 -5 0
-7 5 -4 10 3 6 8 10 11 10 2 0 4 -4 4 -10z m-1505 -10 c3 -5 -3 -10 -15 -10
-12 0 -18 5 -15 10 3 6 10 10 15 10 5 0 12 -4 15 -10z m2575 -100 l0 -80 -220
0 -220 0 0 -80 0 -80 195 0 195 0 0 -85 0 -85 -195 0 -195 0 0 -80 0 -80 223
-2 222 -3 3 -82 3 -83 -316 0 -315 0 0 410 0 410 310 0 310 0 0 -80z m-2260
25 c13 -14 21 -25 18 -25 -2 0 -15 11 -28 25 -13 14 -21 25 -18 25 2 0 15 -11
28 -25z m1271 -2 c13 -16 12 -17 -3 -4 -10 7 -18 15 -18 17 0 8 8 3 21 -13z
m-1220 -50 c13 -16 12 -17 -3 -4 -10 7 -18 15 -18 17 0 8 8 3 21 -13z m29 -33
c0 -5 -2 -10 -4 -10 -3 0 -8 5 -11 10 -3 6 -1 10 4 10 6 0 11 -4 11 -10z m40
-35 c13 -14 21 -25 18 -25 -2 0 -15 11 -28 25 -13 14 -21 25 -18 25 2 0 15
-11 28 -25z m1430 15 c0 -5 -7 -10 -15 -10 -8 0 -15 5 -15 10 0 6 7 10 15 10
8 0 15 -4 15 -10z m-190 -40 c0 -5 -2 -10 -4 -10 -3 0 -8 5 -11 10 -3 6 -1 10
4 10 6 0 11 -4 11 -10z m-1165 -50 c21 -22 37 -40 34 -40 -3 0 -23 18 -44 40
-21 22 -37 40 -34 40 3 0 23 -18 44 -40z m960 -10 c-3 -5 -12 -10 -18 -10 -7
0 -6 4 3 10 19 12 23 12 15 0z m-55 -14 c0 -2 -7 -7 -16 -10 -8 -3 -12 -2 -9
4 6 10 25 14 25 6z m-266 -126 c-9 -16 -21 -30 -27 -29 -8 0 -8 2 1 6 6 2 12
10 12 17 0 10 19 36 26 36 1 0 -4 -13 -12 -30z m-44 -115 c0 -5 -5 -3 -10 5
-5 8 -10 20 -10 25 0 6 5 3 10 -5 5 -8 10 -19 10 -25z m7 -37 c-3 -8 -6 -5 -6
6 -1 11 2 17 5 13 3 -3 4 -12 1 -19z m120 -30 c-3 -8 -6 -5 -6 6 -1 11 2 17 5
13 3 -3 4 -12 1 -19z m-454 -70 c2 -13 8 -32 11 -43 7 -19 7 -19 -4 -2 -16 24
-31 79 -21 72 5 -2 11 -15 14 -27z m-53 -122 c0 -2 -7 -7 -16 -10 -8 -3 -12
-2 -9 4 6 10 25 14 25 6z m-193 -12 c-3 -3 -12 -4 -19 -1 -8 3 -5 6 6 6 11 1
17 -2 13 -5z m214 -47 c-10 -9 -11 -8 -5 6 3 10 9 15 12 12 3 -3 0 -11 -7 -18z
m-371 -25 c0 -5 -12 -14 -27 -21 l-28 -12 25 21 c29 22 30 23 30 12z m-60 -36
c0 -2 -9 -6 -20 -9 -11 -3 -18 -1 -14 4 5 9 34 13 34 5z m1091 -43 c13 -16 12
-17 -3 -4 -17 13 -22 21 -14 21 2 0 10 -8 17 -17z m33 -55 c17 -33 23 -192 8
-215 -4 -6 -5 29 -3 78 2 65 -1 100 -13 129 -19 48 -14 53 8 8z m-1564 -43
c-7 -8 -16 -15 -21 -15 -5 0 -9 7 -9 15 0 9 9 15 21 15 18 0 19 -2 9 -15z
m-90 -65 c0 -5 -5 -10 -11 -10 -5 0 -7 5 -4 10 3 6 8 10 11 10 2 0 4 -4 4 -10z
m90 0 c0 -5 -7 -10 -15 -10 -8 0 -15 5 -15 10 0 6 7 10 15 10 8 0 15 -4 15
-10z m-40 -20 c0 -5 -5 -10 -11 -10 -5 0 -7 5 -4 10 3 6 8 10 11 10 2 0 4 -4
4 -10z m2310 -452 l0 -173 97 105 c54 58 127 136 163 173 l65 68 109 -3 108
-3 -161 -167 c-89 -92 -161 -171 -161 -175 0 -5 76 -112 170 -238 l170 -230
-102 -3 c-56 -1 -107 -1 -113 2 -9 3 -207 268 -247 330 -5 7 -24 -6 -53 -34
l-45 -44 0 -128 0 -128 -95 0 -95 0 0 410 0 410 95 0 95 0 0 -172z m860 145
c0 -16 -11 -133 -25 -261 -14 -128 -25 -238 -25 -243 0 -6 -22 -9 -52 -7 l-53
3 -27 245 c-15 135 -27 255 -27 268 -1 21 2 22 104 22 l105 0 0 -27z m-1500
-73 c0 -11 -4 -20 -9 -20 -5 0 -7 9 -4 20 3 11 7 20 9 20 2 0 4 -9 4 -20z
m-250 -304 c0 -2 -8 -10 -17 -17 -16 -13 -17 -12 -4 4 13 16 21 21 21 13z
m-130 -120 c0 -2 -8 -10 -17 -17 -16 -13 -17 -12 -4 4 13 16 21 21 21 13z
m-50 -167 c0 -5 -6 -9 -14 -9 -8 0 -16 -7 -20 -15 -6 -17 -36 -21 -36 -5 0 6
7 10 15 10 8 0 19 9 25 20 11 20 30 19 30 -1z"/>
<path d="M1543 3848 c-30 -15 -29 -42 3 -67 35 -28 70 -15 67 25 -1 16 -10 35
-20 41 -20 15 -21 15 -50 1z m32 -39 c11 -17 -1 -21 -15 -4 -8 9 -8 15 -2 15
6 0 14 -5 17 -11z"/>
<path d="M1760 3734 c0 -8 5 -12 10 -9 6 3 10 10 10 16 0 5 -4 9 -10 9 -5 0
-10 -7 -10 -16z"/>
<path d="M1930 3523 c1 -5 27 -25 58 -45 31 -21 68 -48 82 -60 120 -110 358
-294 490 -379 94 -59 330 -179 355 -179 17 0 0 17 -27 28 -18 7 -42 18 -53 24
-11 6 -54 29 -95 51 -41 22 -86 47 -100 57 -14 9 -32 19 -40 22 -25 9 -197
136 -374 276 -159 125 -278 212 -290 212 -4 0 -6 -3 -6 -7z"/>
<path d="M2320 2400 c0 -5 5 -10 11 -10 5 0 7 5 4 10 -3 6 -8 10 -11 10 -2 0
-4 -4 -4 -10z"/>
<path d="M2415 2240 c-3 -5 -1 -10 4 -10 6 0 11 5 11 10 0 6 -2 10 -4 10 -3 0
-8 -4 -11 -10z"/>
<path d="M2133 2153 c-7 -3 -13 -12 -13 -21 0 -15 2 -15 17 1 18 18 16 27 -4
20z"/>
<path d="M2240 2130 c0 -5 5 -10 10 -10 6 0 10 5 10 10 0 6 -4 10 -10 10 -5 0
-10 -4 -10 -10z"/>
<path d="M2260 2079 c0 -5 5 -7 10 -4 6 3 10 8 10 11 0 2 -4 4 -10 4 -5 0 -10
-5 -10 -11z"/>
<path d="M1980 1999 c0 -99 -52 -200 -160 -310 -93 -95 -147 -155 -153 -173
-10 -26 -26 13 -28 66 -2 49 -4 55 -14 41 -7 -10 -11 -22 -8 -28 2 -7 -1 -24
-7 -39 -8 -23 -7 -32 10 -53 11 -14 20 -31 20 -38 0 -6 10 -20 21 -31 22 -19
22 -19 15 9 -9 39 16 86 77 144 112 105 165 165 195 224 18 34 32 72 32 85 0
12 5 26 10 29 6 3 10 28 10 55 0 27 -4 52 -10 55 -6 4 -10 -10 -10 -36z"/>
<path d="M2434 1989 c-3 -6 -1 -16 5 -22 8 -8 11 -5 11 11 0 24 -5 28 -16 11z"/>
<path d="M2400 1956 c0 -9 5 -16 10 -16 6 0 10 4 10 9 0 6 -4 13 -10 16 -5 3
-10 -1 -10 -9z"/>
<path d="M1831 1919 c-11 -19 -11 -21 4 -15 9 3 19 6 21 6 2 0 4 7 4 15 0 21
-13 19 -29 -6z"/>
<path d="M2460 1895 c0 -17 2 -18 24 -9 18 7 12 24 -10 24 -8 0 -14 -7 -14
-15z"/>
<path d="M2176 1881 c-4 -6 -3 -18 2 -27 8 -14 10 -14 15 -2 7 19 -8 44 -17
29z"/>
<path d="M2090 1840 c0 -13 5 -18 14 -14 8 3 12 12 9 20 -8 21 -23 17 -23 -6z"/>
<path d="M1957 1664 c-8 -8 3 -34 14 -34 11 0 12 27 0 34 -4 3 -11 3 -14 0z"/>
<path d="M1573 1485 c-12 -5 -28 -26 -36 -47 -20 -49 -52 -50 -72 -3 -6 15
-10 3 -16 -47 -11 -105 -22 -112 -58 -38 -14 28 -29 50 -33 50 -12 0 -10 -38
2 -45 6 -3 10 -20 10 -36 l0 -30 -30 21 c-28 20 -30 20 -28 3 3 -40 -2 -93
-10 -93 -5 0 -18 21 -29 48 -44 102 -43 102 -37 42 4 -40 1 -63 -10 -85 -9
-16 -16 -35 -16 -41 0 -6 -11 -20 -25 -32 -14 -12 -25 -29 -25 -38 0 -22 -48
-120 -66 -135 -20 -16 -17 -28 4 -22 10 2 23 16 30 31 28 64 55 102 78 108 21
5 24 12 24 49 0 51 16 99 30 90 17 -11 9 -102 -11 -124 -11 -11 -19 -24 -19
-28 0 -8 -31 -47 -71 -91 -12 -12 -19 -29 -15 -38 7 -18 26 -9 26 13 0 8 13
27 28 41 33 31 120 155 133 189 5 13 13 23 18 23 5 0 15 16 22 35 15 40 24 43
39 14 6 -11 19 -19 28 -17 17 3 22 28 22 101 0 30 11 35 30 12 7 -8 16 -15 19
-15 4 0 26 27 50 60 46 66 51 91 14 75z"/>
<path d="M742 1054 c-12 -18 -22 -37 -22 -42 0 -4 -13 -23 -30 -42 -27 -32
-29 -33 -30 -12 0 12 5 31 12 42 18 28 3 35 -24 11 -12 -12 -34 -24 -48 -27
-50 -11 -54 -14 -42 -26 9 -9 20 -9 42 -1 16 6 31 8 34 5 12 -11 5 -69 -14
-132 -24 -79 -28 -179 -6 -161 10 8 13 23 9 45 -3 21 3 56 16 93 12 33 21 66
21 74 0 8 18 37 40 64 22 28 40 58 40 68 0 9 4 17 9 17 7 0 23 51 17 57 0 1
-11 -14 -24 -33z"/>
<path d="M1330 1079 c0 -5 5 -7 10 -4 6 3 10 8 10 11 0 2 -4 4 -10 4 -5 0 -10
-5 -10 -11z"/>
<path d="M1297 1033 c-4 -3 0 -14 9 -24 12 -13 13 -22 5 -38 -14 -26 -13 -57
3 -101 7 -21 9 -47 5 -63 -4 -15 -3 -29 2 -33 5 -3 9 -13 9 -22 0 -10 13 -33
30 -52 25 -30 29 -43 30 -94 0 -60 19 -149 47 -217 24 -61 33 -46 13 24 -23
83 -40 175 -40 220 l0 37 63 0 c77 1 249 33 224 43 -10 4 -40 2 -67 -4 -28 -6
-55 -9 -61 -7 -12 4 7 14 101 54 81 35 191 104 244 154 45 44 45 65 0 24 -103
-92 -353 -213 -489 -237 -36 -7 -45 -2 -64 35 -9 17 -12 46 -9 85 4 45 1 63
-13 83 -21 29 -16 68 12 99 26 27 24 34 -6 27 -14 -4 -25 -2 -25 4 0 11 -13
13 -23 3z"/>
<path d="M1580 1016 c0 -9 7 -16 16 -16 17 0 14 22 -4 28 -7 2 -12 -3 -12 -12z"/>
<path d="M1660 1020 c0 -5 5 -10 10 -10 6 0 10 5 10 10 0 6 -4 10 -10 10 -5 0
-10 -4 -10 -10z"/>
<path d="M4096 1014 c-12 -12 -16 -37 -16 -109 0 -122 3 -125 118 -125 140 0
132 -7 132 125 0 94 -3 114 -16 119 -9 3 -58 6 -109 6 -72 0 -97 -4 -109 -16z
m214 -109 l0 -95 -100 0 -100 0 0 95 0 95 100 0 100 0 0 -95z"/>
<path d="M1442 968 c6 -18 28 -21 28 -4 0 9 -7 16 -16 16 -9 0 -14 -5 -12 -12z"/>
<path d="M956 893 c-32 -57 -56 -75 -56 -41 l0 21 -23 -21 c-27 -26 -37 -28
-37 -7 0 23 -14 18 -38 -15 -16 -22 -34 -32 -64 -36 -25 -4 -53 -18 -70 -34
-41 -39 -35 -58 7 -21 25 22 46 31 70 31 18 0 37 5 40 10 4 6 27 8 53 6 60 -6
102 24 132 91 29 66 19 77 -14 16z"/>
<path d="M1040 930 c0 -5 5 -10 10 -10 6 0 10 5 10 10 0 6 -4 10 -10 10 -5 0
-10 -4 -10 -10z"/>
<path d="M1090 846 c0 -3 25 -16 55 -30 30 -14 58 -33 62 -43 8 -23 53 -66 61
-58 15 15 -47 90 -102 122 -20 12 -76 18 -76 9z"/>
<path d="M900 751 c-8 -5 -32 -16 -54 -25 -21 -9 -36 -20 -32 -23 3 -3 11 -1
18 4 24 19 102 24 194 11 103 -14 110 -24 38 -57 -48 -23 -104 -27 -121 -10
-13 13 -55 8 -60 -8 -3 -7 3 -10 14 -7 10 3 32 -2 48 -10 17 -9 39 -16 50 -16
32 1 105 38 147 75 21 19 45 35 53 35 8 0 15 5 15 11 0 8 -12 10 -36 6 -31 -5
-161 5 -234 18 -14 2 -32 0 -40 -4z"/>
<path d="M1810 740 c-13 -8 -11 -11 6 -16 25 -7 38 -30 52 -99 28 -132 36
-162 49 -193 19 -44 27 -35 14 15 -6 21 -20 85 -32 142 -17 77 -29 111 -49
132 -19 21 -29 26 -40 19z"/>
<path d="M1748 654 c-4 -6 4 -36 19 -65 20 -39 28 -74 31 -128 5 -93 -3 -102
-92 -94 -77 7 -128 -6 -141 -35 -15 -33 -43 -37 -72 -10 -23 20 -24 21 -15 3
18 -34 45 -51 103 -64 31 -6 74 -21 95 -31 21 -11 46 -20 57 -20 10 0 27 -9
39 -20 42 -39 99 -73 150 -90 68 -22 79 -46 17 -36 -24 4 -48 11 -54 17 -11
11 -45 12 -45 0 0 -5 24 -19 52 -31 49 -21 55 -22 80 -7 15 8 36 13 47 10 12
-3 21 -2 21 1 0 11 -54 55 -67 56 -7 0 -17 9 -23 20 -8 14 -6 27 9 54 l20 34
-25 6 c-15 4 -24 14 -24 26 0 26 -17 26 -25 -1 -5 -16 -12 -19 -28 -13 -12 4
-51 9 -87 11 -36 3 -69 9 -74 14 -6 5 -24 9 -40 9 -49 0 -106 12 -106 21 0 5
14 9 30 9 35 0 41 17 8 22 -13 2 -21 8 -18 13 3 6 43 9 100 7 125 -4 133 1
138 98 3 54 0 81 -13 111 -10 21 -22 39 -27 39 -4 0 -8 7 -8 15 0 8 -4 15 -9
15 -5 0 -11 10 -13 23 -2 13 -6 18 -10 11z m182 -450 c2 -3 -1 -14 -8 -24 -6
-11 -9 -26 -6 -35 12 -31 -48 -5 -106 46 l-35 30 75 -6 c41 -4 77 -9 80 -11z"/>
<path d="M760 639 c0 -5 5 -7 10 -4 6 3 10 8 10 11 0 2 -4 4 -10 4 -5 0 -10
-5 -10 -11z"/>
<path d="M833 623 c9 -2 23 -2 30 0 6 3 -1 5 -18 5 -16 0 -22 -2 -12 -5z"/>
<path d="M700 579 c-36 -33 -50 -40 -72 -35 -21 4 -28 2 -28 -9 0 -19 55 -20
86 -2 22 12 74 70 74 81 0 13 -17 3 -60 -35z"/>
<path d="M1270 595 c0 -8 4 -15 10 -15 5 0 7 7 4 15 -4 8 -8 15 -10 15 -2 0
-4 -7 -4 -15z"/>
<path d="M1290 555 c0 -16 20 -56 33 -66 4 -3 10 -48 13 -100 3 -52 10 -108
15 -126 15 -47 64 -91 151 -133 42 -20 89 -47 104 -59 48 -37 58 -23 13 19
-24 21 -47 39 -52 40 -16 0 -103 44 -134 67 -45 33 -63 75 -63 149 0 35 -4 66
-10 69 -5 3 -10 15 -10 25 0 20 -47 130 -55 130 -3 0 -5 -7 -5 -15z"/>
<path d="M1940 381 c0 -6 5 -13 10 -16 6 -3 10 1 10 9 0 9 -4 16 -10 16 -5 0
-10 -4 -10 -9z"/>
<path d="M2090 301 c14 -11 44 -30 67 -41 24 -11 63 -35 87 -54 24 -18 56 -36
70 -40 14 -3 26 -13 26 -22 0 -13 -8 -15 -42 -9 -40 6 -42 6 -23 -9 26 -20 52
-20 90 0 16 8 40 12 53 9 16 -4 23 -2 20 6 -2 6 -33 22 -69 34 -74 25 -77 26
-136 71 -30 23 -39 35 -30 41 12 7 -25 18 -103 29 l-35 5 25 -20z"/>
<path d="M2356 291 c-4 -6 -27 -11 -52 -11 -28 0 -43 -4 -39 -10 3 -5 19 -10
35 -10 16 0 30 -7 34 -16 5 -14 10 -12 27 11 15 18 18 30 11 37 -6 6 -12 6
-16 -1z"/>
<path d="M1670 80 c0 -11 2 -20 4 -20 2 0 11 -3 20 -6 24 -9 20 23 -4 36 -17
9 -20 8 -20 -10z"/>
</g>
</svg>
